HIERARCHY
ROOT ui
{
	 OFFSET 0 0 0
	 CHANNELS 3 XPosition YPosition Z Position
	 EndSite
	 {
	 OFFSET 0 -1 0
	 }
}
ROOT li
{
	 OFFSET 0 0 0
	 CHANNELS 3 XPosition YPosition Z Position
	 EndSite
	 {
	 OFFSET 0 -1 0
	 }
}
ROOT ul
{
	 OFFSET 0 0 0
	 CHANNELS 3 XPosition YPosition Z Position
	 EndSite
	 {
	 OFFSET 0 -1 0
	 }
}
ROOT ll
{
	 OFFSET 0 0 0
	 CHANNELS 3 XPosition YPosition Z Position
	 EndSite
	 {
	 OFFSET 0 -1 0
	 }
}
ROOT tt
{
	 OFFSET 0 0 0
	 CHANNELS 3 XPosition YPosition Z Position
	 EndSite
	 {
	 OFFSET 0 -1 0
	 }
}
ROOT tb
{
	 OFFSET 0 0 0
	 CHANNELS 3 XPosition YPosition Z Position
	 EndSite
	 {
	 OFFSET 0 -1 0
	 }
}
ROOT td
{
	 OFFSET 0 0 0
	 CHANNELS 3 XPosition YPosition Z Position
	 EndSite
	 {
	 OFFSET 0 -1 0
	 }
}
ROOT v
{
	 OFFSET 0 0 0
	 CHANNELS 3 XPosition YPosition Z Position
	 EndSite
	 {
	 OFFSET 0 -1 0
	 }
}
ROOT bn
{
	 OFFSET 0 0 0
	 CHANNELS 3 XPosition YPosition Z Position
	 EndSite
	 {
	 OFFSET 0 -1 0
	 }
}
MOTION
Frames: 30
Frame Time: 0.002
-0.0053095841407775875	-0.004151652812957764	0		0.43968853759765625	-2.332906982421875	0		-1.0907166748046875	0.11273090362548828	0		-0.5095619201660156	-2.6850654296875	0		1.894279296875	-0.18294522094726562	0		3.451738037109375	0.589365234375	0		4.754509765625	0.22227780151367188	0		5.927955078125	0.38026275634765627	0		-0.32638055419921874	5.87517138671875	0		
-0.0024970688819885255	-0.0012308059930801391	0		0.41550613403320313	-2.327596435546875	0		-1.1609974365234375	0.10973332977294922	0		-0.5017079772949219	-2.67721240234375	0		1.9438359375	-0.19773240661621094	0		3.456425537109375	0.5832175903320312	0		4.76147119140625	0.23508367919921874	0		5.93144921875	0.39552395629882814	0		-0.32557260131835936	5.87312548828125	0		
0.001308940052986145	0.002677815914154053	0		0.44525299072265623	-2.3260732421875	0		-1.1553221435546874	0.10462710571289062	0		-0.5257689819335938	-2.66188916015625	0		1.94358154296875	-0.19778742980957031	0		3.486162353515625	0.5817057495117187	0		4.769396484375	0.24687742614746094	0		5.93126904296875	0.3953477172851563	0		-0.34369586181640627	5.8773603515625	0		
0.001038051962852478	0.0026480860710144044	0		0.4429258117675781	-2.32807861328125	0		-1.0987005615234375	0.09677622985839844	0		-0.4880604248046875	-2.6614697265625	0		1.9331187744140625	-0.21069187927246094	0		3.455916015625	0.5830748901367188	0		4.78344921875	0.26858447265625	0		5.931076171875	0.39517572021484376	0		-0.32692929077148436	5.87508544921875	0		
-0.003307451963424683	-0.0013200169801712036	0		0.44058273315429686	-2.330081298828125	0		-1.09119287109375	0.08264579010009766	0		-0.5321535034179687	-2.64584765625	0		1.9256978759765624	-0.2196375732421875	0		3.455635498046875	0.5830081176757812	0		4.7782685546875	0.27557504272460936	0		5.93087109375	0.3950103759765625	0		-0.3271492919921875	5.87506201171875	0		
-0.0036085920333862303	-0.0013451110124588013	0		0.46518035888671877	-2.335477783203125	0		-1.1036533203125	0.07180976867675781	0		-0.4826059875488281	-2.65460009765625	0		1.937260986328125	-0.22885865783691406	0		3.4592373046875	0.5758876953125	0		4.7812783203125	0.2964520568847656	0		5.93065576171875	0.39485540771484373	0		-0.1940930633544922	5.8940859375	0		
-0.003920509099960327	-0.0013685799837112426	0		0.41192471313476564	-2.329727783203125	0		-1.09803857421875	0.06670950317382812	0		-0.5457315063476562	-2.63969482421875	0		1.9428433837890624	-0.2359885559082031	0		3.4729443359375	0.57662451171875	0		4.78914453125	0.3082628173828125	0		5.934103515625	0.411884521484375	0		-0.32667074584960937	5.873005859375	0		
-1.8100999295711517E-4	0.0025501329898834227	0		0.46653524780273437	-2.3335615234375	0		-1.0924310302734375	0.06160945510864258	0		-0.5009609375	-2.63237451171875	0		1.9584471435546875	-0.24126242065429687	0		3.46771923828125	0.5826445922851563	0		4.8021357421875	0.3290050964355469	0		5.9375361328125	0.42719622802734375	0		-0.32693771362304686	5.87298681640625	0		
-5.022770166397094E-4	0.002529247999191284	0		0.43924234008789065	-2.330189453125	0		-1.0927518310546875	0.061597301483154294	0		-0.4952156982421875	-2.626480224609375	0		1.98898828125	-0.25075384521484373	0		3.47621044921875	0.5694650268554687	0		4.80102294921875	0.34295901489257813	0		5.937306640625	0.4270774230957031	0		-0.32818252563476563	5.87498291015625	0		
-0.004879477977752685	-0.0014315979480743408	0		0.46178643798828123	-2.33855029296875	0		-1.102172119140625	0.05471826553344727	0		-0.4924950256347656	-2.622541259765625	0		1.987432373046875	-0.26677197265625	0		3.48889453125	0.5692284545898437	0		4.80192724609375	0.3578877258300781	0		5.9334189453125	0.4115264892578125	0		-0.19516415405273438	5.894005859375	0		
-0.005190371990203857	-0.0014516639709472657	0		0.43450689697265626	-2.335176513671875	0		-1.1105994873046876	0.046824214935302734	0		-0.5237171630859375	-2.6151025390625	0		1.976944091796875	-0.2786569519042969	0		3.467427734375	0.5584951171875	0		4.8088095703125	0.3707308349609375	0		5.93685791015625	0.42686309814453127	0		-0.34289041137695314	5.864154296875	0		
0.016466083526611327	-0.004795957088470459	0		0.43419427490234375	-2.335199951171875	0		-1.110896240234375	0.04681096267700195	0		-0.4961966857910156	-2.62653076171875	0		1.9933489990234374	-0.2989390563964844	0		3.467134521484375	0.5584512329101563	0		4.8085146484375	0.3706779479980469	0		5.9366455078125	0.42675811767578126	0		-0.362087158203125	5.86841552734375	0		
0.0013376940488815307	0.005402346134185791	0		0.41200588989257814	-2.327901123046875	0		-1.1111732177734375	0.04679737091064453	0		-0.48430242919921873	-2.61372705078125	0		2.0310506591796873	-0.30053445434570314	0		3.49684326171875	0.5569631958007812	0		4.81972509765625	0.4034566345214844	0		5.9461689453125	0.3830452880859375	0		-0.326282470703125	5.87086572265625	0		
0.023022878646850587	0.001056177020072937	0		0.4626258239746094	-2.335677734375	0		-1.1154700927734376	0.04384287261962891	0		-0.5073081359863282	-2.595408447265625	0		2.0016063232421875	-0.3131434326171875	0		3.4835068359375	0.5511063842773437	0		4.8345908203125	0.41117544555664065	0		5.9362666015625	0.42652963256835935	0		-0.3435923461914063	5.86409716796875	0		
-0.0021876730918884276	0.002401189088821411	0		0.4303087158203125	-2.340232421875	0		-1.1278587646484375	0.03300662612915039	0		-0.4966910095214844	-2.604589111328125	0		2.047164306640625	-0.32785986328125	0		3.471107666015625	0.5392332153320313	0		4.83047021484375	0.4181713256835938	0		5.943236328125	0.4261507263183594	0		-0.22462384033203125	5.8733203125	0		
0.015503593444824219	-0.004888906002044678	0		0.45605352783203124	-2.34264453125	0		-1.1280618896484376	0.03299069976806641	0		-0.5077820129394531	-2.595448974609375	0		2.0457369384765625	-0.3428856506347656	0		3.479833740234375	0.5340469970703124	0		4.8353876953125	0.4260314636230469	0		5.94309033203125	0.42602139282226564	0		-0.3439281311035156	5.86405419921875	0		
-0.006631786823272705	-0.0015923980474472047	0		0.40293136596679685	-2.336894287109375	0		-1.13330224609375	0.029046596527099608	0		-0.4811955871582031	-2.60986962890625	0		2.042478515625	-0.34788592529296875	0		3.483552490234375	0.5269315185546875	0		4.8334013671875	0.438990966796875	0		5.9455498046875	0.3825384521484375	0		-0.3440607604980469	5.864029296875	0		
-0.002738004922866821	0.0023172109127044677	0		0.45769644165039064	-2.340740966796875	0		-1.1284083251953125	0.03295094299316406	0		-0.5482274169921875	-2.59890771484375	0		2.04392626953125	-0.3739607849121094	0		3.484318115234375	0.5218569946289062	0		4.837328125	0.4448594970703125	0		5.93571142578125	0.4260006103515625	0		-0.37824627685546874	5.85950390625	0		
-0.002890070915222168	0.002283091068267822	0		0.45549630737304686	-2.342748779296875	0		-1.0586416015625	0.026891653060913085	0		-0.47849664306640627	-2.6059716796875	0		2.07953076171875	-0.39054168701171876	0		3.492991943359375	0.5096632080078125	0		4.83738671875	0.45878512573242186	0		5.94273486328125	0.4256031188964844	0		-0.2109706268310547	5.88400146484375	0		
-0.007091744899749756	-0.00169500994682312	0		0.4532929382324219	-2.345759765625	0		-1.0728125	0.025068544387817384	0		-0.4786576843261719	-2.606005859375	0		2.078163330078125	-0.405577392578125	0		3.50585107421875	0.5094090270996093	0		4.84624609375	0.45858074951171873	0		5.95047705078125	0.42518460083007814	0		-0.3453686828613281	5.86494921875	0		
-0.007228178024291992	-0.001736799955368042	0		0.44908514404296873	-2.349744384765625	0		-1.07699267578125	0.022091999053955078	0		-0.479837646484375	-2.6080302734375	0		2.064774658203125	-0.42243621826171873	0		3.4756318359375	0.5037927856445312	0		4.84631884765625	0.47251129150390625	0		5.9503798828125	0.42505636596679686	0		-0.2272941131591797	5.876162109375	0		
-0.007359160900115967	-0.0017831449508666991	0		0.452634521484375	-2.370849365234375	0		-1.1461900634765625	0.018071079254150392	0		-0.5359422607421875	-2.605246337890625	0		2.07828564453125	-0.4466945495605469	0		3.4761474609375	0.47972177124023435	0		4.85029296875	0.4793875732421875	0		5.93531005859375	0.42547653198242186	0		-0.37866864013671875	5.85935302734375	0		
-0.0034253571033477782	0.002106204032897949	0		0.49036834716796873	-2.380462646484375	0		-1.063220458984375	0.023792816162109376	0		-0.45024365234375	-2.617568115234375	0		2.0840556640625	-0.4538370056152344	0		3.518989013671875	0.47702890014648436	0		4.8581533203125	0.4782103271484375	0		5.95019677734375	0.42483367919921877	0		-0.3295821533203125	5.872576171875	0		
-0.003542176961898804	0.002050539970397949	0		0.4523904113769531	-2.37095654296875	0		-1.083290771484375	0.027032108306884767	0		-0.46529794311523437	-2.613402587890625	0		2.0824951171875	-0.4838732299804688	0		3.47655078125	0.4555994873046875	0		4.86315380859375	0.48608294677734376	0		5.95011376953125	0.424744140625	0		-0.3468045349121094	5.8657724609375	0		
0.021334489822387694	6.20290994644165E-4	0		0.4731575927734375	-2.3803251953125	0		-1.081530029296875	0.017939182281494142	0		-0.4792893371582031	-2.60625830078125	0		2.117913818359375	-0.5164554443359375	0		3.481161865234375	0.4364794921875	0		4.858943359375	0.4790997314453125	0		5.957169921875	0.4244204406738281	0		-0.2277666778564453	5.87594873046875	0		
-0.007799140930175781	-0.0020161309242248534	0		0.45395098876953127	-2.38910546875	0		-1.091606689453125	0.01901355171203613	0		-0.4606907653808594	-2.62860595703125	0		2.1086484375	-0.5283717651367188	0		3.47780029296875	0.4184846801757813	0		4.85884716796875	0.4790683288574219	0		5.94997265625	0.424635986328125	0		-0.22888575744628906	5.87689599609375	0		
0.018119785308837892	-0.002471992015838623	0		0.4897320861816406	-2.400702880859375	0		-1.0817010498046875	0.017782522201538087	0		-0.44887490844726563	-2.63785888671875	0		2.076062255859375	-0.56294384765625	0		3.491361328125	0.39424642944335936	0		4.867748046875	0.4779163818359375	0		5.9499169921875	0.424624267578125	0		-0.38127691650390627	5.8610703125	0		
-0.0038836169242858886	0.0017749420404434204	0		0.45591226196289064	-2.386273193359375	0		-1.08176611328125	0.017689212799072266	0		-0.44484304809570313	-2.63400244140625	0		2.115809326171875	-0.5765806274414063	0		3.487217529296875	0.3892788391113281	0		4.86688330078125	0.49192233276367187	0		5.9570029296875	0.42438446044921874	0		-0.3483267822265625	5.8674990234375	0		
-0.003937222003936767	0.0016910220384597778	0		0.5115861206054687	-2.408172119140625	0		-1.09180419921875	0.018733135223388674	0		-0.45093679809570314	-2.64000537109375	0		2.120219970703125	-0.6136959228515625	0		3.483891845703125	0.3713042602539062	0		4.8676142578125	0.47791326904296877	0		5.94775634765625	0.43513778686523436	0		-0.21519129943847656	5.88644580078125	0		
-0.008040302276611328	-0.0023398890495300293	0		0.4835968017578125	-2.407839111328125	0		-1.1058770751953124	0.016825653076171874	0		-0.45702658081054687	-2.64701611328125	0		2.110792236328125	-0.6406046752929687	0		3.489558837890625	0.35220333862304687	0		4.86735302734375	0.46393017578125	0		5.947724609375	0.43520657348632813	0		-0.21633395385742188	5.888365234375	0		
